<svg version="1.1" xmlns="http://www.w3.org/2000/svg" viewBox="0 0 102.51347806635204 214.62776306117848"
  width="102.51347806635204" height="214.62776306117848">
  <g stroke-linecap="round"
    transform="translate(14.856793561273662 10.000000000001819) rotate(0 35.3515625 32.53773834745789)">
    <path
      d="M43.11 0.66 C50.14 1.53, 59.19 5.89, 63.71 11.12 C68.23 16.34, 70.35 25.06, 70.23 32.03 C70.11 38.99, 67.54 47.61, 63 52.9 C58.47 58.19, 50.23 62.27, 43.02 63.75 C35.81 65.23, 26.5 64.68, 19.73 61.78 C12.97 58.89, 5.55 52.45, 2.43 46.38 C-0.69 40.31, -0.92 31.95, 1.02 25.35 C2.96 18.75, 8.31 11.07, 14.07 6.77 C19.83 2.47, 30.31 0.59, 35.59 -0.47 C40.86 -1.53, 44.02 -0.18, 45.73 0.41 C47.44 0.99, 46.09 2.35, 45.84 3.05 M43.03 1.24 C50.1 2.07, 58.5 6.55, 63.06 11.63 C67.61 16.71, 70.54 24.75, 70.33 31.72 C70.13 38.69, 66.41 48.12, 61.84 53.44 C57.28 58.76, 49.76 62.23, 42.95 63.63 C36.15 65.03, 27.74 64.71, 21.02 61.83 C14.31 58.95, 5.77 52.55, 2.67 46.35 C-0.43 40.16, 0.59 31.34, 2.42 24.64 C4.25 17.95, 8.01 10.25, 13.66 6.17 C19.31 2.09, 31.16 0.99, 36.31 0.16 C41.47 -0.68, 43.51 0.86, 44.6 1.15 C45.69 1.44, 43.33 1.63, 42.85 1.9"
      stroke="none" stroke-width="0" fill="#fff"></path>
    <path
      d="M32.06 0.72 C39.11 -0.2, 49.15 1.39, 55.44 4.94 C61.72 8.49, 67.52 15.29, 69.75 22.03 C71.98 28.78, 71.56 38.97, 68.84 45.4 C66.11 51.83, 59.85 57.46, 53.38 60.62 C46.92 63.78, 37.32 65.42, 30.03 64.37 C22.74 63.31, 14.63 59.26, 9.65 54.3 C4.66 49.34, 0.79 41.2, 0.11 34.59 C-0.56 27.99, 1.28 20.08, 5.6 14.68 C9.93 9.28, 21.13 4.76, 26.07 2.18 C31.01 -0.4, 33.61 -0.57, 35.25 -0.82 C36.89 -1.07, 35.91 0.04, 35.91 0.68 M36.77 0.99 C44.03 0.86, 53.48 4.14, 59.24 8.17 C65 12.2, 69.95 18.66, 71.33 25.16 C72.72 31.65, 71.12 40.71, 67.56 47.16 C64 53.6, 56.96 60.81, 49.96 63.82 C42.95 66.83, 32.68 67.09, 25.53 65.22 C18.38 63.35, 11.2 58.21, 7.07 52.57 C2.94 46.94, 0.35 38.33, 0.76 31.42 C1.18 24.51, 4.69 16.4, 9.58 11.13 C14.48 5.86, 25.65 1.44, 30.11 -0.22 C34.57 -1.87, 35.33 1.1, 36.34 1.19 C37.35 1.28, 36.22 0.09, 36.2 0.31"
      stroke="#000000" stroke-width="2" fill="none"></path>
  </g>
  <g stroke-linecap="round">
    <g transform="translate(46.345141018900904 74.84866217879062) rotate(0 -2.061294457970689 38.78098197810232)">
      <path d="M-0.78 -0.19 C-1.5 12.94, -3.4 64.59, -3.94 77.89 M1.01 -1.34 C0.06 11.99, -4.13 65.74, -5.13 78.9"
        stroke="#000000" stroke-width="2" fill="none"></path>
    </g>
  </g>
  <g stroke-linecap="round">
    <g transform="translate(43.048001188391936 155.76100328048233) rotate(0 15.330043847322486 23.5543507234961)">
      <path d="M-0.19 -0.47 C5 7.6, 24.87 39.45, 30.23 47.6 M-1.76 -1.76 C3.88 6.53, 26.86 40.86, 32.42 48.87"
        stroke="#000000" stroke-width="2" fill="none"></path>
    </g>
  </g>
  <g stroke-linecap="round">
    <g transform="translate(38.453191866356065 152.23875751776905) rotate(0 -13.482392492030158 22.213892038242193)">
      <path d="M-0.47 -1 C-4.88 6.6, -22.92 37.94, -27.24 45.43 M1.49 1.09 C-3.05 8.37, -23.71 36.4, -28.45 43.69"
        stroke="#000000" stroke-width="2" fill="none"></path>
    </g>
  </g>
  <g stroke-linecap="round">
    <g transform="translate(16.134600764664356 89.83144819573681) rotate(0 15.033674877225167 13.81408995986294)">
      <path d="M-1 -0.51 C4.21 4.47, 25.97 24.39, 31.07 29.46 M0.68 -1.83 C5.81 2.82, 25.27 22.55, 30.5 27.51"
        stroke="#000000" stroke-width="2" fill="none"></path>
    </g>
  </g>
  <g stroke-linecap="round">
    <g transform="translate(48.45716432398331 118.45962616183715) rotate(0 21.77119028179277 -12.349675567827035)">
      <path d="M-0.51 0.73 C6.91 -3.34, 36.56 -21.02, 44.06 -25.43 M1.42 0.07 C8.75 -3.78, 36.17 -20.13, 43.29 -24.3"
        stroke="#000000" stroke-width="2" fill="none"></path>
    </g>
  </g>
</svg>