<svg version="1.1" xmlns="http://www.w3.org/2000/svg" viewBox="0 0 107.10102406127407 214.62776306117667"
  width="107.10102406127407" height="214.62776306117667">
  <g stroke-linecap="round" transform="translate(15.96327671565814 10) rotate(0 35.3515625 32.53773834745789)">
    <path
      d="M43.11 0.66 C50.14 1.53, 59.19 5.89, 63.71 11.12 C68.23 16.34, 70.35 25.06, 70.23 32.03 C70.11 38.99, 67.54 47.61, 63 52.9 C58.47 58.19, 50.23 62.27, 43.02 63.75 C35.81 65.23, 26.5 64.68, 19.73 61.78 C12.97 58.89, 5.55 52.45, 2.43 46.38 C-0.69 40.31, -0.92 31.95, 1.02 25.35 C2.96 18.75, 8.31 11.07, 14.07 6.77 C19.83 2.47, 30.31 0.59, 35.59 -0.47 C40.86 -1.53, 44.02 -0.18, 45.73 0.41 C47.44 0.99, 46.09 2.35, 45.84 3.05 M43.03 1.24 C50.1 2.07, 58.5 6.55, 63.06 11.63 C67.61 16.71, 70.54 24.75, 70.33 31.72 C70.13 38.69, 66.41 48.12, 61.84 53.44 C57.28 58.76, 49.76 62.23, 42.95 63.63 C36.15 65.03, 27.74 64.71, 21.02 61.83 C14.31 58.95, 5.77 52.55, 2.67 46.35 C-0.43 40.16, 0.59 31.34, 2.42 24.64 C4.25 17.95, 8.01 10.25, 13.66 6.17 C19.31 2.09, 31.16 0.99, 36.31 0.16 C41.47 -0.68, 43.51 0.86, 44.6 1.15 C45.69 1.44, 43.33 1.63, 42.85 1.9"
      stroke="none" stroke-width="0" fill="#fff"></path>
    <path
      d="M32.06 0.72 C39.11 -0.2, 49.15 1.39, 55.44 4.94 C61.72 8.49, 67.52 15.29, 69.75 22.03 C71.98 28.78, 71.56 38.97, 68.84 45.4 C66.11 51.83, 59.85 57.46, 53.38 60.62 C46.92 63.78, 37.32 65.42, 30.03 64.37 C22.74 63.31, 14.63 59.26, 9.65 54.3 C4.66 49.34, 0.79 41.2, 0.11 34.59 C-0.56 27.99, 1.28 20.08, 5.6 14.68 C9.93 9.28, 21.13 4.76, 26.07 2.18 C31.01 -0.4, 33.61 -0.57, 35.25 -0.82 C36.89 -1.07, 35.91 0.04, 35.91 0.68 M36.77 0.99 C44.03 0.86, 53.48 4.14, 59.24 8.17 C65 12.2, 69.95 18.66, 71.33 25.16 C72.72 31.65, 71.12 40.71, 67.56 47.16 C64 53.6, 56.96 60.81, 49.96 63.82 C42.95 66.83, 32.68 67.09, 25.53 65.22 C18.38 63.35, 11.2 58.21, 7.07 52.57 C2.94 46.94, 0.35 38.33, 0.76 31.42 C1.18 24.51, 4.69 16.4, 9.58 11.13 C14.48 5.86, 25.65 1.44, 30.11 -0.22 C34.57 -1.87, 35.33 1.1, 36.34 1.19 C37.35 1.28, 36.22 0.09, 36.2 0.31"
      stroke="#000000" stroke-width="2" fill="none"></path>
  </g>
  <g stroke-linecap="round">
    <g transform="translate(47.45162417328538 74.8486621787888) rotate(0 -2.061294457970689 38.78098197810232)">
      <path d="M-0.78 -0.19 C-1.5 12.94, -3.4 64.59, -3.94 77.89 M1.01 -1.34 C0.06 11.99, -4.13 65.74, -5.13 78.9"
        stroke="#000000" stroke-width="2" fill="none"></path>
    </g>
  </g>
  <g stroke-linecap="round">
    <g transform="translate(44.15448434277641 155.7610032804805) rotate(0 15.330043847322486 23.5543507234961)">
      <path d="M-0.19 -0.47 C5 7.6, 24.87 39.45, 30.23 47.6 M-1.76 -1.76 C3.88 6.53, 26.86 40.86, 32.42 48.87"
        stroke="#000000" stroke-width="2" fill="none"></path>
    </g>
  </g>
  <g stroke-linecap="round">
    <g transform="translate(39.55967502074054 152.23875751776723) rotate(0 -13.482392492030158 22.213892038242193)">
      <path d="M-0.47 -1 C-4.88 6.6, -22.92 37.94, -27.24 45.43 M1.49 1.09 C-3.05 8.37, -23.71 36.4, -28.45 43.69"
        stroke="#000000" stroke-width="2" fill="none"></path>
    </g>
  </g>
  <g stroke-linecap="round">
    <g transform="translate(17.241083919048833 89.83144819573499) rotate(0 15.033674877225167 13.81408995986294)">
      <path d="M-1 -0.51 C4.21 4.47, 25.97 24.39, 31.07 29.46 M0.68 -1.83 C5.81 2.82, 25.27 22.55, 30.5 27.51"
        stroke="#000000" stroke-width="2" fill="none"></path>
    </g>
  </g>
  <g stroke-linecap="round">
    <g transform="translate(49.563647478367784 118.45962616183533) rotate(0 21.77119028179277 -12.349675567827035)">
      <path d="M-0.51 0.73 C6.91 -3.34, 36.56 -21.02, 44.06 -25.43 M1.42 0.07 C8.75 -3.78, 36.17 -20.13, 43.29 -24.3"
        stroke="#000000" stroke-width="2" fill="none"></path>
    </g>
  </g>
  <g stroke-linecap="round">
    <g transform="translate(52.89603306213394 52.60491393495613) rotate(0 0.6544789685030992 7.613417851844133)"
      fill-rule="evenodd">
      <path
        d="M0.05 -1.28 L28.43 11.47 L37.95 8.1 L44.69 2.7 L39.95 12.7 L37.11 15.25 L34.83 18.31 L-2.08 12.4 L-19.02 15.68 L-27.44 13.09 L-37.51 6.27 L-40.15 -1.2 L-30.23 3.3 L-26.2 7.56 L0.17 -0.85"
        stroke="none" stroke-width="0" fill="#000" fill-rule="evenodd"></path>
      <path
        d="M-0.83 -0.5 C3.72 0.98, 20.56 6.86, 26.54 8.6 C32.53 10.34, 32.17 10.8, 35.07 9.94 C37.96 9.07, 43.34 2.51, 43.92 3.43 C44.5 4.34, 41.75 13.1, 38.57 15.44 C35.39 17.78, 31.18 18.28, 24.84 17.46 C18.5 16.63, 9.19 11.21, 0.53 10.5 C-8.12 9.78, -20.12 15.21, -27.08 13.16 C-34.05 11.11, -41.19 -0.79, -41.26 -1.79 C-41.33 -2.79, -34.38 6.86, -27.49 7.15 C-20.6 7.43, -4.51 1.28, 0.08 -0.07 M0.94 -1.81 C5.46 -0.2, 19.95 7.9, 26.04 9.57 C32.13 11.24, 34.45 9.04, 37.47 8.22 C40.5 7.39, 44.23 3.44, 44.2 4.63 C44.18 5.83, 40.33 13.4, 37.3 15.4 C34.27 17.4, 32.59 17.68, 26.03 16.64 C19.47 15.61, 6.41 9.88, -2.07 9.17 C-10.54 8.46, -18 14.34, -24.81 12.38 C-31.61 10.42, -42.48 -1.74, -42.9 -2.6 C-43.31 -3.46, -34.52 6.66, -27.3 7.24 C-20.07 7.82, -3.88 1.79, 0.45 0.87"
        stroke="#000000" stroke-width="1" fill="none"></path>
    </g>
  </g>
  <g stroke-linecap="round"
    transform="translate(25.375866911886988 26.946497394961625) rotate(0 11.5814208984375 9.222412109375)">
    <path
      d="M6.6 1.08 C8.84 -0.12, 12.41 -0.93, 14.75 -0.41 C17.09 0.11, 19.13 2.47, 20.63 4.19 C22.14 5.91, 24.01 8.14, 23.79 9.93 C23.57 11.73, 21.15 13.39, 19.32 14.96 C17.48 16.52, 15.33 18.85, 12.8 19.31 C10.27 19.77, 6.2 18.99, 4.15 17.71 C2.1 16.44, 1.02 13.85, 0.51 11.67 C-0.01 9.49, -0.26 6.6, 1.06 4.61 C2.39 2.62, 6.98 0.34, 8.47 -0.29 C9.95 -0.93, 9.76 0.61, 9.97 0.81 M13.43 -0.6 C15.7 -0.04, 18.26 3.48, 19.94 4.95 C21.61 6.41, 23.2 6.23, 23.48 8.17 C23.76 10.12, 23.19 15.04, 21.65 16.61 C20.11 18.18, 17.04 17.64, 14.22 17.58 C11.41 17.52, 6.92 17.01, 4.77 16.24 C2.63 15.47, 1.8 14.53, 1.36 12.96 C0.91 11.39, 1.43 8.77, 2.1 6.82 C2.77 4.86, 3.21 2.31, 5.37 1.22 C7.54 0.14, 13.75 0.61, 15.07 0.33 C16.39 0.05, 13.69 -0.81, 13.29 -0.45"
      stroke="#000000" stroke-width="1" fill="none"></path>
  </g>
  <g stroke-linecap="round"
    transform="translate(36.33108067057037 34.22115559808299) rotate(0 0.604248046875 0.79345703125)">
    <path
      d="M0.54 0.38 C0.37 0.25, -0.06 -0.41, 0.1 -0.3 C0.25 -0.2, 1.29 0.93, 1.48 1.03 C1.67 1.14, 1.43 0.27, 1.23 0.34 C1.04 0.4, 0.26 1.38, 0.31 1.44 C0.36 1.49, 1.41 0.66, 1.54 0.67 C1.67 0.68, 1.36 1.43, 1.1 1.49 C0.83 1.54, 0.26 1.18, -0.05 1 C-0.36 0.83, -0.73 0.69, -0.76 0.44 C-0.79 0.2, -0.53 -0.55, -0.23 -0.45 C0.06 -0.35, 0.97 0.87, 1.02 1.03 M-0.28 -0.76 C0.13 -0.64, 2.32 -0.01, 2.33 0.45 C2.35 0.91, -0.19 1.73, -0.19 2.01 C-0.18 2.29, 2.33 2.32, 2.38 2.12 C2.43 1.92, 0.56 0.78, 0.11 0.82 C-0.34 0.86, -0.49 2.07, -0.34 2.36 C-0.19 2.64, 0.78 2.93, 1.01 2.54 C1.24 2.15, 1.16 0.19, 1.04 -0.01 C0.93 -0.2, 0.37 1.45, 0.3 1.35 C0.24 1.24, 0.75 -0.24, 0.65 -0.63 C0.55 -1.02, -0.52 -0.87, -0.3 -1"
      stroke="#000000" stroke-width="1" fill="none"></path>
  </g>
  <g stroke-linecap="round"
    transform="translate(68.12429356119537 36.96163411370799) rotate(0 0.6103515625 1.03759765625)">
    <path
      d="M1.23 -0.57 C1.27 -0.45, 0.73 0.69, 0.83 1.01 C0.94 1.34, 1.93 1.36, 1.85 1.4 C1.77 1.43, 0.58 0.96, 0.36 1.22 C0.15 1.49, 0.76 2.75, 0.58 2.97 C0.39 3.2, -0.68 2.92, -0.76 2.59 C-0.85 2.26, -0.09 1.51, 0.07 1.01 C0.23 0.5, 0.1 -0.17, 0.17 -0.44 C0.25 -0.71, 0.47 -0.81, 0.51 -0.62 C0.55 -0.42, 0.2 0.65, 0.43 0.73 C0.67 0.82, 1.78 0, 1.93 -0.13 M-0.23 1.41 C0.04 1.28, 0.79 -1.29, 1.27 -1.2 C1.75 -1.11, 2.5 1.65, 2.65 1.96 C2.8 2.27, 2.6 0.81, 2.2 0.67 C1.79 0.54, 0.36 0.78, 0.21 1.15 C0.05 1.53, 1.06 2.67, 1.26 2.93 C1.45 3.19, 1.72 3, 1.38 2.7 C1.05 2.4, -0.74 1.5, -0.76 1.12 C-0.79 0.75, 1.14 0.78, 1.26 0.45 C1.37 0.13, 0.19 -0.99, -0.1 -0.82 C-0.39 -0.66, -0.34 1.33, -0.48 1.45"
      stroke="#000000" stroke-width="1" fill="none"></path>
  </g>
</svg>