<svg version="1.1" xmlns="http://www.w3.org/2000/svg" viewBox="0 0 121.86431139409524 61.10514940439134"
    width="121.86431139409524" height="61.10514940439134">
    <g stroke-linecap="round">
        <g transform="translate(9.809363524243054 29.006041286795153) rotate(0 51.122792172804566 10.51149674736007)">
            <path d="M1.08 -1.08 C18.07 2.33, 85.44 16.99, 102.05 20.6 M0.19 0.97 C17.04 4.56, 84.18 18.62, 101.35 22.1"
                stroke="#000000" stroke-width="2" fill="none"></path>
        </g>
    </g>
    <g stroke-linecap="round"
        transform="translate(32.773182056952464 15.48324157481511) rotate(10.74366233694554 30.400191128048846 10.486698509180314)">
        <path d="M-1.66 1.3 L60.69 0.87 L59.74 21.86 L-1.51 22.11" stroke="none" stroke-width="0" fill="#007a31"></path>
        <path
            d="M0.79 -0.12 C17.69 0.39, 37.08 2.48, 61.78 0.92 M-0.82 -0.45 C14.99 -0.09, 31.81 -0.14, 60.99 -0.96 M61.57 1.15 C60.89 7.17, 61.24 14.17, 60.84 22.74 M61.11 0.08 C61.46 8.38, 61.23 15.88, 61.14 20.16 M61.1 20.42 C48.92 22.61, 34.33 21.86, 1.08 19.79 M61.2 21.52 C37.26 20.25, 14.82 21.62, -0.93 20.06 M1.05 18.99 C0.81 11.46, 0.33 3.95, -0.47 -0.18 M0.05 21.42 C-0.56 13.64, -0.67 7.62, 0.9 -0.06"
            stroke="#000000" stroke-width="2" fill="none"></path>
    </g>
</svg>