<svg version="1.1" xmlns="http://www.w3.org/2000/svg" viewBox="0 0 156.1006536742325 356.44479590107585"
  width="156.1006536742325" height="356.44479590107585">

  <g stroke-linecap="round">
    <g transform="translate(10.950551193468527 122.42187280449252) rotate(0 67.09977564364772 -41.287299313949006)"
      fill-rule="evenodd">
      <path
        d="M-0.28 -1.64 L3.63 -35.72 L13.54 -61.31 L18 -76.84 L24.63 -86.18 L44.39 -102.39 L58.01 -108.7 L79.22 -112.45 L88.77 -108.39 L99.44 -105.78 L115.39 -89.73 L125.73 -69.95 L129.22 -60.77 L135.64 -35.76 L134.32 13.51 L129.6 22.17 L126.05 24.33 L123.32 27.1 L102.59 30.19 L22.76 21.79 L5.75 23.26 L3.07 19.43 L-0.1 16.04 L-0.67 0.55"
        stroke="none" stroke-width="0" fill="#fd7e14" fill-rule="evenodd"></path>
      <path
        d="M-0.66 -0.84 C-0.16 -5.43, 2.11 -20.78, 3.3 -27.95 C4.5 -35.13, 5.03 -38.45, 6.51 -43.89 C7.99 -49.33, 9.98 -55.03, 12.2 -60.6 C14.42 -66.18, 16.51 -72.09, 19.82 -77.34 C23.12 -82.59, 28.11 -87.68, 32.02 -92.11 C35.93 -96.55, 39 -101, 43.29 -103.95 C47.59 -106.9, 51.9 -108.6, 57.81 -109.82 C63.71 -111.04, 71.82 -111.77, 78.74 -111.26 C85.66 -110.75, 93.31 -110.23, 99.35 -106.75 C105.38 -103.27, 110.68 -96.09, 114.97 -90.36 C119.25 -84.62, 122 -79.33, 125.07 -72.34 C128.13 -65.35, 131.69 -57.04, 133.35 -48.4 C135.01 -39.76, 135.41 -32.12, 135.01 -20.49 C134.62 -8.86, 134.62 13.25, 130.99 21.38 C127.36 29.52, 122.96 27.43, 113.23 28.33 C103.5 29.23, 87.81 27.87, 72.61 26.78 C57.41 25.69, 33.98 22.7, 22.02 21.79 C10.05 20.87, 4.48 25.07, 0.83 21.28 C-2.83 17.5, 0.31 2.58, 0.08 -0.92 M1.19 1.34 C1.56 -3.04, 1.89 -18.69, 2.66 -26.57 C3.43 -34.45, 4.19 -40.47, 5.84 -45.92 C7.48 -51.37, 10.46 -54.07, 12.56 -59.27 C14.65 -64.47, 14.93 -71.55, 18.42 -77.13 C21.91 -82.7, 29.28 -88.56, 33.5 -92.7 C37.72 -96.85, 39.8 -99.1, 43.75 -102.01 C47.7 -104.92, 51.06 -108.5, 57.21 -110.17 C63.36 -111.85, 73.5 -113.08, 80.64 -112.06 C87.77 -111.04, 94.25 -107.27, 100.03 -104.04 C105.82 -100.81, 110.87 -97.85, 115.33 -92.71 C119.8 -87.56, 123.75 -80.95, 126.85 -73.16 C129.94 -65.37, 132.65 -54.64, 133.9 -45.97 C135.14 -37.29, 134.76 -32.2, 134.31 -21.11 C133.87 -10.03, 135.09 12.09, 131.23 20.52 C127.38 28.96, 120.59 28.32, 111.17 29.48 C101.74 30.65, 89.72 28.78, 74.67 27.52 C59.63 26.26, 32.91 22.84, 20.9 21.91 C8.88 20.98, 5.96 25.5, 2.58 21.93 C-0.8 18.36, 0.75 4.26, 0.61 0.48"
        stroke="#495057" stroke-width="1" fill="none"></path>
    </g>
  </g>
  <g stroke-linecap="round"
    transform="translate(33.23795088591032 60.66699284688548) rotate(0 20.98425383527001 20.984236433409933)">
    <path
      d="M30.25 2.65 C34.21 4.38, 38.18 9.14, 39.95 13.07 C41.72 17, 41.96 22.13, 40.87 26.25 C39.79 30.36, 37.01 35.17, 33.45 37.76 C29.88 40.35, 24.2 42.1, 19.5 41.78 C14.8 41.46, 8.65 39.16, 5.26 35.82 C1.86 32.47, -0.61 26.26, -0.88 21.7 C-1.15 17.13, 0.98 11.78, 3.62 8.4 C6.25 5.02, 10.16 2.34, 14.93 1.4 C19.7 0.45, 29.14 2.15, 32.25 2.73 C35.37 3.31, 33.77 4.66, 33.61 4.9 M20.66 0.33 C24.99 -0.04, 30.55 1.61, 34.23 4.22 C37.91 6.83, 41.66 11.58, 42.73 16.01 C43.8 20.44, 42.83 26.77, 40.65 30.83 C38.48 34.88, 33.86 38.8, 29.68 40.36 C25.5 41.93, 20 41.41, 15.55 40.21 C11.11 39.01, 5.78 36.78, 3 33.19 C0.22 29.59, -1.78 23.05, -1.11 18.65 C-0.44 14.26, 3.71 10.11, 7.03 6.81 C10.35 3.51, 16.76 0.09, 18.79 -1.15 C20.83 -2.4, 19.15 -1, 19.24 -0.65"
      stroke="none" stroke-width="0" fill="#ffffff"></path>
    <path
      d="M18.61 0.51 C22.81 -0.4, 28.78 0.6, 32.54 3.11 C36.3 5.62, 39.92 11.32, 41.17 15.57 C42.41 19.82, 41.67 24.58, 40 28.6 C38.34 32.61, 35.17 37.37, 31.19 39.66 C27.2 41.96, 20.62 43.49, 16.11 42.35 C11.59 41.21, 6.76 36.47, 4.09 32.82 C1.43 29.16, -0.03 24.86, 0.1 20.39 C0.24 15.93, 1.28 9.54, 4.9 6.03 C8.52 2.53, 18.6 0.37, 21.8 -0.64 C25 -1.65, 24.2 -0.4, 24.09 -0.03 M29.98 2.43 C33.9 3.95, 37.48 7, 39.5 11.04 C41.53 15.09, 43.44 22.26, 42.14 26.68 C40.85 31.11, 35.53 35.1, 31.73 37.59 C27.93 40.09, 23.83 42.07, 19.34 41.66 C14.85 41.26, 7.88 38.14, 4.79 35.17 C1.71 32.19, 1.04 28.41, 0.85 23.81 C0.67 19.2, 1.19 11.52, 3.68 7.55 C6.18 3.58, 11.56 0.82, 15.84 0 C20.12 -0.83, 26.94 2.07, 29.38 2.6 C31.81 3.13, 30.37 2.92, 30.46 3.18"
      stroke="#343a40" stroke-width="1" fill="none"></path>
  </g>
  <g stroke-linecap="round"
    transform="translate(91.02066605993423 63.708199983544546) rotate(0 19.463632865052205 20.071880093015352)">
    <path
      d="M19.78 -0.11 C23.87 -0.53, 29.47 1.33, 32.55 4.16 C35.63 6.98, 37.69 12.47, 38.26 16.83 C38.83 21.19, 37.96 26.79, 35.97 30.33 C33.98 33.87, 30.11 36.75, 26.31 38.04 C22.52 39.34, 17.28 39.42, 13.2 38.09 C9.11 36.77, 4.03 33.78, 1.8 30.11 C-0.43 26.45, -1.12 20.24, -0.18 16.12 C0.76 12.01, 3.64 7.98, 7.44 5.43 C11.24 2.87, 19.39 1.31, 22.62 0.8 C25.85 0.28, 26.91 2.09, 26.8 2.33 M18.8 0.35 C22.79 0.03, 27.81 2.56, 30.99 5.29 C34.16 8.02, 36.87 12.61, 37.83 16.74 C38.8 20.86, 38.6 26.24, 36.78 30.05 C34.97 33.86, 30.92 38.11, 26.95 39.61 C22.99 41.11, 16.79 40.72, 13 39.06 C9.21 37.4, 6.24 33.22, 4.19 29.65 C2.15 26.09, 0.16 21.96, 0.73 17.67 C1.31 13.38, 4.87 7.02, 7.64 3.91 C10.4 0.8, 15.69 -0.25, 17.32 -1 C18.95 -1.75, 17.41 -1.28, 17.42 -0.59"
      stroke="none" stroke-width="0" fill="#ffffff"></path>
    <path
      d="M21.25 0.17 C25.09 0.21, 29.7 2.87, 32.75 5.8 C35.8 8.73, 39.17 13.38, 39.54 17.76 C39.91 22.13, 37.43 28.46, 34.97 32.04 C32.5 35.62, 28.5 38.2, 24.74 39.24 C20.98 40.27, 16.33 39.98, 12.4 38.25 C8.47 36.52, 3.03 32.85, 1.15 28.88 C-0.73 24.9, 0.06 18.5, 1.11 14.4 C2.16 10.3, 3.83 6.62, 7.45 4.3 C11.07 1.97, 19.87 0.92, 22.82 0.44 C25.77 -0.05, 25.19 0.92, 25.15 1.39 M18.33 -0.51 C22.19 -0.93, 26.19 2.27, 29.54 4.67 C32.89 7.07, 37.27 9.83, 38.41 13.9 C39.54 17.97, 38.2 25.21, 36.35 29.07 C34.51 32.94, 31.09 35.25, 27.32 37.11 C23.55 38.96, 17.52 41.18, 13.73 40.2 C9.94 39.22, 7.07 34.88, 4.59 31.23 C2.11 27.57, -1.26 22.62, -1.17 18.27 C-1.08 13.92, 1.87 8.05, 5.15 5.12 C8.43 2.19, 16.23 1.33, 18.5 0.69 C20.76 0.05, 18.76 1.07, 18.74 1.28"
      stroke="#343a40" stroke-width="1" fill="none"></path>
  </g>
  <g stroke-linecap="round"
    transform="translate(43.57799714456087 69.0302805692445) rotate(0 11.55652911331481 11.860667228846978)">
    <path
      d="M11.56 0 C13.91 -0.15, 17.09 1.14, 18.98 2.77 C20.88 4.41, 22.51 7.3, 22.94 9.8 C23.37 12.3, 22.8 15.59, 21.56 17.79 C20.33 19.99, 17.84 22.14, 15.51 23.01 C13.18 23.88, 9.93 23.88, 7.6 23.01 C5.28 22.14, 2.79 19.99, 1.55 17.79 C0.31 15.59, -0.25 12.3, 0.18 9.8 C0.61 7.3, 2.23 4.41, 4.13 2.77 C6.02 1.14, 10.32 0.42, 11.56 0 C12.79 -0.42, 11.56 0.04, 11.56 0.24 M11.56 0 C13.91 -0.15, 17.09 1.14, 18.98 2.77 C20.88 4.41, 22.51 7.3, 22.94 9.8 C23.37 12.3, 22.8 15.59, 21.56 17.79 C20.33 19.99, 17.84 22.14, 15.51 23.01 C13.18 23.88, 9.93 23.88, 7.6 23.01 C5.28 22.14, 2.79 19.99, 1.55 17.79 C0.31 15.59, -0.25 12.3, 0.18 9.8 C0.61 7.3, 2.23 4.41, 4.13 2.77 C6.02 1.14, 10.32 0.42, 11.56 0 C12.79 -0.42, 11.56 0.04, 11.56 0.24"
      stroke="none" stroke-width="0" fill="#000"></path>
    <path
      d="M11.56 0 C13.91 -0.15, 17.09 1.14, 18.98 2.77 C20.88 4.41, 22.51 7.3, 22.94 9.8 C23.37 12.3, 22.8 15.59, 21.56 17.79 C20.33 19.99, 17.84 22.14, 15.51 23.01 C13.18 23.88, 9.93 23.88, 7.6 23.01 C5.28 22.14, 2.79 19.99, 1.55 17.79 C0.31 15.59, -0.25 12.3, 0.18 9.8 C0.61 7.3, 2.23 4.41, 4.13 2.77 C6.02 1.14, 10.32 0.42, 11.56 0 C12.79 -0.42, 11.56 0.04, 11.56 0.24 M11.56 0 C13.91 -0.15, 17.09 1.14, 18.98 2.77 C20.88 4.41, 22.51 7.3, 22.94 9.8 C23.37 12.3, 22.8 15.59, 21.56 17.79 C20.33 19.99, 17.84 22.14, 15.51 23.01 C13.18 23.88, 9.93 23.88, 7.6 23.01 C5.28 22.14, 2.79 19.99, 1.55 17.79 C0.31 15.59, -0.25 12.3, 0.18 9.8 C0.61 7.3, 2.23 4.41, 4.13 2.77 C6.02 1.14, 10.32 0.42, 11.56 0 C12.79 -0.42, 11.56 0.04, 11.56 0.24"
      stroke="#343a40" stroke-width="1" fill="none"></path>
  </g>
  <g stroke-linecap="round"
    transform="translate(100.14425266639955 72.07147610480024) rotate(0 11.55652911331481 11.860667228846978)">
    <path
      d="M11.56 0 C13.91 -0.15, 17.09 1.14, 18.98 2.77 C20.88 4.41, 22.51 7.3, 22.94 9.8 C23.37 12.3, 22.8 15.59, 21.56 17.79 C20.33 19.99, 17.84 22.14, 15.51 23.01 C13.18 23.88, 9.93 23.88, 7.6 23.01 C5.28 22.14, 2.79 19.99, 1.55 17.79 C0.31 15.59, -0.25 12.3, 0.18 9.8 C0.61 7.3, 2.23 4.41, 4.13 2.77 C6.02 1.14, 10.32 0.42, 11.56 0 C12.79 -0.42, 11.56 0.04, 11.56 0.24 M11.56 0 C13.91 -0.15, 17.09 1.14, 18.98 2.77 C20.88 4.41, 22.51 7.3, 22.94 9.8 C23.37 12.3, 22.8 15.59, 21.56 17.79 C20.33 19.99, 17.84 22.14, 15.51 23.01 C13.18 23.88, 9.93 23.88, 7.6 23.01 C5.28 22.14, 2.79 19.99, 1.55 17.79 C0.31 15.59, -0.25 12.3, 0.18 9.8 C0.61 7.3, 2.23 4.41, 4.13 2.77 C6.02 1.14, 10.32 0.42, 11.56 0 C12.79 -0.42, 11.56 0.04, 11.56 0.24"
      stroke="none" stroke-width="0" fill="#000"></path>
    <path
      d="M11.56 0 C13.91 -0.15, 17.09 1.14, 18.98 2.77 C20.88 4.41, 22.51 7.3, 22.94 9.8 C23.37 12.3, 22.8 15.59, 21.56 17.79 C20.33 19.99, 17.84 22.14, 15.51 23.01 C13.18 23.88, 9.93 23.88, 7.6 23.01 C5.28 22.14, 2.79 19.99, 1.55 17.79 C0.31 15.59, -0.25 12.3, 0.18 9.8 C0.61 7.3, 2.23 4.41, 4.13 2.77 C6.02 1.14, 10.32 0.42, 11.56 0 C12.79 -0.42, 11.56 0.04, 11.56 0.24 M11.56 0 C13.91 -0.15, 17.09 1.14, 18.98 2.77 C20.88 4.41, 22.51 7.3, 22.94 9.8 C23.37 12.3, 22.8 15.59, 21.56 17.79 C20.33 19.99, 17.84 22.14, 15.51 23.01 C13.18 23.88, 9.93 23.88, 7.6 23.01 C5.28 22.14, 2.79 19.99, 1.55 17.79 C0.31 15.59, -0.25 12.3, 0.18 9.8 C0.61 7.3, 2.23 4.41, 4.13 2.77 C6.02 1.14, 10.32 0.42, 11.56 0 C12.79 -0.42, 11.56 0.04, 11.56 0.24"
      stroke="#343a40" stroke-width="1" fill="none"></path>
  </g>
  <g stroke-linecap="round"
    transform="translate(52.518811804415236 78.73643610582803) rotate(0 3.041195535474344 3.041195535474799)">
    <path
      d="M3.04 0 C3.66 -0.04, 4.5 0.29, 5 0.71 C5.5 1.13, 5.92 1.87, 6.04 2.51 C6.15 3.15, 6 4, 5.67 4.56 C5.35 5.13, 4.69 5.68, 4.08 5.9 C3.47 6.12, 2.61 6.12, 2 5.9 C1.39 5.68, 0.73 5.13, 0.41 4.56 C0.08 4, -0.07 3.15, 0.05 2.51 C0.16 1.87, 0.59 1.13, 1.09 0.71 C1.59 0.29, 2.72 0.11, 3.04 0 C3.37 -0.11, 3.04 0.01, 3.04 0.06 M3.04 0 C3.66 -0.04, 4.5 0.29, 5 0.71 C5.5 1.13, 5.92 1.87, 6.04 2.51 C6.15 3.15, 6 4, 5.67 4.56 C5.35 5.13, 4.69 5.68, 4.08 5.9 C3.47 6.12, 2.61 6.12, 2 5.9 C1.39 5.68, 0.73 5.13, 0.41 4.56 C0.08 4, -0.07 3.15, 0.05 2.51 C0.16 1.87, 0.59 1.13, 1.09 0.71 C1.59 0.29, 2.72 0.11, 3.04 0 C3.37 -0.11, 3.04 0.01, 3.04 0.06"
      stroke="none" stroke-width="0" fill="#fff"></path>
    <path
      d="M3.04 0 C3.66 -0.04, 4.5 0.29, 5 0.71 C5.5 1.13, 5.92 1.87, 6.04 2.51 C6.15 3.15, 6 4, 5.67 4.56 C5.35 5.13, 4.69 5.68, 4.08 5.9 C3.47 6.12, 2.61 6.12, 2 5.9 C1.39 5.68, 0.73 5.13, 0.41 4.56 C0.08 4, -0.07 3.15, 0.05 2.51 C0.16 1.87, 0.59 1.13, 1.09 0.71 C1.59 0.29, 2.72 0.11, 3.04 0 C3.37 -0.11, 3.04 0.01, 3.04 0.06 M3.04 0 C3.66 -0.04, 4.5 0.29, 5 0.71 C5.5 1.13, 5.92 1.87, 6.04 2.51 C6.15 3.15, 6 4, 5.67 4.56 C5.35 5.13, 4.69 5.68, 4.08 5.9 C3.47 6.12, 2.61 6.12, 2 5.9 C1.39 5.68, 0.73 5.13, 0.41 4.56 C0.08 4, -0.07 3.15, 0.05 2.51 C0.16 1.87, 0.59 1.13, 1.09 0.71 C1.59 0.29, 2.72 0.11, 3.04 0 C3.37 -0.11, 3.04 0.01, 3.04 0.06"
      stroke="#343a40" stroke-width="1" fill="none"></path>
  </g>
  <g stroke-linecap="round"
    transform="translate(108.67667052307479 81.16940944073576) rotate(0 3.041195535474344 3.041195535474799)">
    <path
      d="M3.04 0 C3.66 -0.04, 4.5 0.29, 5 0.71 C5.5 1.13, 5.92 1.87, 6.04 2.51 C6.15 3.15, 6 4, 5.67 4.56 C5.35 5.13, 4.69 5.68, 4.08 5.9 C3.47 6.12, 2.61 6.12, 2 5.9 C1.39 5.68, 0.73 5.13, 0.41 4.56 C0.08 4, -0.07 3.15, 0.05 2.51 C0.16 1.87, 0.59 1.13, 1.09 0.71 C1.59 0.29, 2.72 0.11, 3.04 0 C3.37 -0.11, 3.04 0.01, 3.04 0.06 M3.04 0 C3.66 -0.04, 4.5 0.29, 5 0.71 C5.5 1.13, 5.92 1.87, 6.04 2.51 C6.15 3.15, 6 4, 5.67 4.56 C5.35 5.13, 4.69 5.68, 4.08 5.9 C3.47 6.12, 2.61 6.12, 2 5.9 C1.39 5.68, 0.73 5.13, 0.41 4.56 C0.08 4, -0.07 3.15, 0.05 2.51 C0.16 1.87, 0.59 1.13, 1.09 0.71 C1.59 0.29, 2.72 0.11, 3.04 0 C3.37 -0.11, 3.04 0.01, 3.04 0.06"
      stroke="none" stroke-width="0" fill="#fff"></path>
    <path
      d="M3.04 0 C3.66 -0.04, 4.5 0.29, 5 0.71 C5.5 1.13, 5.92 1.87, 6.04 2.51 C6.15 3.15, 6 4, 5.67 4.56 C5.35 5.13, 4.69 5.68, 4.08 5.9 C3.47 6.12, 2.61 6.12, 2 5.9 C1.39 5.68, 0.73 5.13, 0.41 4.56 C0.08 4, -0.07 3.15, 0.05 2.51 C0.16 1.87, 0.59 1.13, 1.09 0.71 C1.59 0.29, 2.72 0.11, 3.04 0 C3.37 -0.11, 3.04 0.01, 3.04 0.06 M3.04 0 C3.66 -0.04, 4.5 0.29, 5 0.71 C5.5 1.13, 5.92 1.87, 6.04 2.51 C6.15 3.15, 6 4, 5.67 4.56 C5.35 5.13, 4.69 5.68, 4.08 5.9 C3.47 6.12, 2.61 6.12, 2 5.9 C1.39 5.68, 0.73 5.13, 0.41 4.56 C0.08 4, -0.07 3.15, 0.05 2.51 C0.16 1.87, 0.59 1.13, 1.09 0.71 C1.59 0.29, 2.72 0.11, 3.04 0 C3.37 -0.11, 3.04 0.01, 3.04 0.06"
      stroke="#343a40" stroke-width="1" fill="none"></path>
  </g>
  <g stroke-linecap="round">
    <g transform="translate(32.18265999980849 147.20097112229632) rotate(0 2.782732362909428 98.90161731817079)"
      fill-rule="evenodd">
      <path
        d="M-0.04 0.52 L-4.54 34.02 L1.25 79.73 L-9.62 120.16 L-7.17 140.73 L-2.27 187.39 L2.13 195.59 L4.71 197.53 L6.85 197.18 L6.59 189.57 L4.08 138.67 L12.96 89.86 L7.46 39.78 L17.41 1.6 L13.05 -0.91 L1.24 -0.23"
        stroke="none" stroke-width="0" fill="#fd7e14" fill-rule="evenodd"></path>
      <path
        d="M0.43 0.14 C-0.36 6.07, -4.19 22.6, -4.11 35.79 C-4.04 48.97, 1.64 64.9, 0.86 79.25 C0.07 93.6, -7.76 108.45, -8.8 121.88 C-9.85 135.31, -7.25 147.85, -5.42 159.85 C-3.59 171.85, 0.18 188.3, 2.18 193.88 C4.18 199.45, 6.32 202.81, 6.6 193.29 C6.88 183.77, 3.1 153.94, 3.85 136.75 C4.6 119.57, 10.62 106.18, 11.1 90.16 C11.59 74.14, 6.16 55.42, 6.78 40.64 C7.4 25.86, 16.05 8.09, 14.82 1.49 C13.6 -5.1, 1.93 1.43, -0.58 1.07 M-0.81 -0.83 C-1.83 5.3, -5.47 23.86, -5.24 37.4 C-5.02 50.93, 1.15 66.66, 0.54 80.39 C-0.08 94.11, -7.69 106.46, -8.93 119.75 C-10.17 133.05, -8.48 147.98, -6.9 160.15 C-5.33 172.32, -1.76 187.45, 0.51 192.76 C2.79 198.06, 6.31 201.46, 6.74 191.99 C7.18 182.52, 2.16 153.09, 3.15 135.95 C4.14 118.8, 12.03 105.05, 12.69 89.1 C13.36 73.14, 6.8 54.64, 7.14 40.19 C7.48 25.74, 15.67 8.89, 14.71 2.39 C13.75 -4.11, 3.83 1.91, 1.37 1.2"
        stroke="#343a40" stroke-width="1" fill="none"></path>
    </g>
  </g>
  <g stroke-linecap="round">
    <g transform="translate(56.7600554940982 147.63415864021408) rotate(0 4.407903483563587 70.6003500293773)"
      fill-rule="evenodd">
      <path
        d="M0.52 -0.76 L-5.78 26.71 L0.13 55.31 L-9.79 86.93 L-8.68 99.06 L-1.4 135.37 L2.74 138.28 L3.8 142.42 L6.45 140.6 L9.03 138.81 L4.57 99.39 L13.33 63.86 L7.44 30.79 L17.11 1.21 L14.82 0.23 L-0.23 1.63"
        stroke="none" stroke-width="0" fill="#fd7e14" fill-rule="evenodd"></path>
      <path
        d="M0.14 -0.34 C-0.56 3.98, -3.93 16.91, -4.01 26.32 C-4.09 35.73, 0.32 46.11, -0.35 56.13 C-1.03 66.15, -7.1 76.55, -8.06 86.43 C-9.02 96.3, -7.62 106.85, -6.1 115.39 C-4.59 123.92, -1.38 133.75, 1.03 137.61 C3.44 141.48, 8.11 145.26, 8.38 138.59 C8.65 131.91, 1.79 110.1, 2.66 97.54 C3.54 84.97, 12.69 74.74, 13.63 63.18 C14.57 51.62, 7.74 38.63, 8.3 28.2 C8.86 17.77, 18.21 5.34, 17.01 0.61 C15.8 -4.12, 4.01 -0.08, 1.07 -0.19 M-1.24 -1.56 C-2.11 2.38, -4.88 14.87, -4.89 24.64 C-4.9 34.42, -0.88 46.6, -1.3 57.08 C-1.72 67.56, -6.32 78.25, -7.39 87.52 C-8.45 96.79, -9.29 103.99, -7.67 112.7 C-6.04 121.4, -0.43 135.59, 2.36 139.73 C5.15 143.88, 8.66 144.72, 9.07 137.56 C9.48 130.41, 4.29 108.88, 4.83 96.8 C5.36 84.71, 11.57 76.63, 12.28 65.05 C12.99 53.47, 8.25 37.94, 9.07 27.32 C9.9 16.69, 18.72 5.96, 17.24 1.29 C15.76 -3.38, 3.22 -0.35, 0.21 -0.71"
        stroke="#343a40" stroke-width="1" fill="none"></path>
    </g>
  </g>
  <g stroke-linecap="round">
    <g transform="translate(76.6474722865878 149.05408457378508) rotate(0 3.4464636553680066 51.53155578741371)"
      fill-rule="evenodd">
      <path
        d="M-0.76 -1.64 L-2.46 18.94 L-1.53 41.08 L-7.46 63.57 L-9.15 73.67 L0.43 100.76 L4.61 103.39 L7.57 101 L2.33 73.34 L12.48 48.25 L8.5 21.73 L15.26 0.02 L14.56 -0.81 L0.02 0.51"
        stroke="none" stroke-width="0" fill="#fd7e14" fill-rule="evenodd"></path>
      <path
        d="M-0.34 0.13 C-0.89 3.19, -2.79 11.34, -2.85 18.45 C-2.91 25.57, 0.14 35.27, -0.71 42.8 C-1.57 50.34, -7.38 56.76, -7.96 63.67 C-8.54 70.58, -5.53 77.79, -4.19 84.25 C-2.84 90.71, -1.93 99.63, 0.11 102.42 C2.15 105.22, 7.64 105.88, 8.03 101.01 C8.41 96.14, 1.94 82.16, 2.41 73.2 C2.89 64.24, 10.17 55.9, 10.87 47.24 C11.57 38.58, 5.94 28.81, 6.59 21.26 C7.24 13.71, 15.9 5.6, 14.77 1.94 C13.64 -1.71, 2.28 -0.39, -0.19 -0.66 M1.68 -0.84 C1.02 2.37, -3.37 12.85, -3.35 19.81 C-3.33 26.76, 2.54 33.41, 1.81 40.89 C1.08 48.37, -6.58 57.4, -7.73 64.68 C-8.88 71.96, -6.54 78.44, -5.08 84.56 C-3.62 90.69, -1.32 98.38, 1.02 101.43 C3.37 104.48, 8.39 107.56, 8.99 102.85 C9.6 98.14, 4.07 82.68, 4.65 73.18 C5.23 63.68, 12.07 54.61, 12.45 45.86 C12.83 37.12, 6.54 28.4, 6.93 20.72 C7.32 13.05, 16.23 3.52, 14.79 -0.17 C13.35 -3.87, 0.73 -1.4, -1.7 -1.43"
        stroke="#343a40" stroke-width="1" fill="none"></path>
    </g>
  </g>
  <g stroke-linecap="round">
    <g transform="translate(99.68051247065887 147.78453122374412) rotate(0 4.046546462268907 81.80441496766707)"
      fill-rule="evenodd">
      <path
        d="M-0.18 -1.89 L-2.86 30.45 L-1.22 65.06 L-8.73 100.47 L-5.73 134.38 L2.22 160.87 L8.83 161.99 L1.81 115.36 L12.53 74.9 L8.48 35.54 L17.76 0.55 L-0.72 -0.23"
        stroke="none" stroke-width="0" fill="#fd7e14" fill-rule="evenodd"></path>
      <path
        d="M1.43 -0.58 C-2.52 10.67, -2.62 18.31, -2.16 29.58 M-0.74 -0.63 C-0.35 5.97, -1.74 12.52, -4.14 29.35 M-4.04 30.35 C-3.26 42.52, 0.3 58.59, -1.53 65.7 M-4.35 30.36 C-1.98 41.64, -2.3 53.77, -0.45 66.18 M1.1 66.91 C-2.83 77.49, -3.86 89.98, -8.54 101.8 M-0.34 66.29 C-2.59 78.74, -5.75 91.71, -9.35 101.4 M-9.41 99.75 C-6.85 109.06, -8.16 115.69, -4.66 135.16 M-8.9 101.57 C-7.68 109.51, -7.34 118.09, -6.11 134.66 M-4.32 132.93 C-3.76 143.87, -3.2 151.74, 1.26 164.24 M-6.43 133.22 C-5.34 140.48, -3.21 146.3, 1.24 162.7 M0.49 161.78 C3.77 162.59, 6.77 161.92, 7.31 161 M0.9 162.52 C3.15 162.06, 5.28 162.28, 8.27 161.63 M8.8 162.52 C6.18 148.99, 3.9 139.78, 3.19 115.7 M7.69 160.83 C6.84 147.49, 4.69 132.77, 3.69 114.92 M3.65 114.23 C6.49 102.87, 7.5 89.32, 13.44 73.73 M2.89 114.7 C5.73 103.94, 8.65 92.91, 12.24 75.41 M13.17 76.22 C12.81 62.93, 11.93 52.85, 9.39 35.23 M13.19 74.48 C9.94 58.71, 8.09 41.9, 8.58 34.15 M9.68 33.68 C8.65 26.31, 12.29 17.95, 16.58 0.2 M8.12 34.13 C9.92 25.01, 12.75 15.83, 17.5 0.66 M17.31 3.04 C10.93 1.82, 4.92 0.87, 0.23 0.85 M16.42 1.51 C10.79 0.79, 5.89 0.17, -0.82 -0.11 M0 0 C0 0, 0 0, 0 0 M0 0 C0 0, 0 0, 0 0"
        stroke="#343a40" stroke-width="1" fill="none"></path>
    </g>
  </g>
</svg>